<svg fill="#000000" height="30px" width="30px" version="1.1" id="Layer_1" xmlns="http://www.w3.org/2000/svg" xmlns:xlink="http://www.w3.org/1999/xlink"
	 viewBox="0 0 512 512" xml:space="preserve">
<g>
	<g>
		<g>
			<path d="M213.333,409.6c-4.719,0-8.533,3.823-8.533,8.533s3.814,8.533,8.533,8.533h85.333c4.719,0,8.533-3.823,8.533-8.533
				s-3.814-8.533-8.533-8.533H213.333z"/>
			<path d="M358.4,384c0-4.71-3.814-8.533-8.533-8.533H162.133c-4.719,0-8.533,3.823-8.533,8.533s3.814,8.533,8.533,8.533h187.733
				C354.586,392.533,358.4,388.71,358.4,384z"/>
			<path d="M186.957,213.367c-4.693,0.435-8.149,4.582-7.723,9.267c0.375,4.156,10.01,101.632,76.766,101.632
				s76.39-97.476,76.766-101.632c0.427-4.685-3.029-8.832-7.723-9.267c-4.608-0.333-8.841,3.038-9.276,7.723
				c-0.077,0.862-8.55,86.11-59.767,86.11c-51.217,0-59.691-85.248-59.767-86.11C195.797,216.397,191.556,212.975,186.957,213.367z"
				/>
			<path d="M477.867,119.467V8.533c0-4.71-3.814-8.533-8.533-8.533h-51.2c-3.234,0-6.187,1.826-7.629,4.719L409.6,6.519
				l-0.896-1.801C407.253,1.826,404.301,0,401.067,0h-358.4c-0.094,0-0.162,0.051-0.256,0.051c-0.572,0.017-1.118,0.205-1.681,0.341
				c-0.555,0.128-1.118,0.205-1.621,0.435c-0.085,0.043-0.171,0.034-0.256,0.077c-0.384,0.188-0.631,0.521-0.973,0.759
				c-0.512,0.35-1.024,0.666-1.434,1.118c-0.375,0.41-0.631,0.887-0.922,1.357c-0.282,0.461-0.589,0.879-0.785,1.399
				c-0.222,0.58-0.273,1.186-0.367,1.809c-0.051,0.401-0.239,0.768-0.239,1.186c0,0.094,0.051,0.171,0.051,0.256
				c0.017,0.572,0.205,1.118,0.341,1.681c0.136,0.555,0.196,1.118,0.444,1.621c0.034,0.085,0.026,0.179,0.068,0.256l34.133,68.267
				c1.323,2.645,3.917,4.42,6.861,4.685c0.256,0.026,0.521,0.034,0.768,0.034c2.679,0,5.205-1.254,6.827-3.413
				c23.142-30.857,79.155-39.253,79.727-39.339c4.659-0.674,7.893-5.001,7.219-9.66c-0.666-4.668-5.018-7.936-9.651-7.236
				c-2.33,0.333-52.241,7.774-82.091,36.096L56.474,17.067h339.32l6.178,12.348c2.893,5.786,12.365,5.786,15.258,0l6.178-12.348
				H460.8v97.126l-29.414,14.711c-2.893,1.442-4.719,4.395-4.719,7.629s1.826,6.187,4.719,7.637l29.414,14.703V204.8h-8.533
				c-4.719,0-8.533,3.823-8.533,8.533c0,4.71,3.814,8.533,8.533,8.533h8.533v156.86l-12.348,6.178
				c-2.893,1.442-4.719,4.395-4.719,7.629c0,3.234,1.826,6.187,4.719,7.637l12.348,6.17v88.593h-51.2V486.4
				c0-4.71-3.814-8.533-8.533-8.533c-4.719,0-8.533,3.823-8.533,8.533v8.533H167.407l-14.703-29.414
				c-2.901-5.786-12.373-5.786-15.266,0l-14.711,29.414H51.2V358.4h8.533c4.719,0,8.533-3.823,8.533-8.533s-3.814-8.533-8.533-8.533
				H51.2v-10.402l27.665-6.921c4.574-1.143,7.364-5.769,6.212-10.351c-1.143-4.565-5.786-7.373-10.342-6.204l-23.535,5.88V210.074
				l12.348-6.17c2.893-1.451,4.719-4.403,4.719-7.637s-1.826-6.187-4.719-7.629L51.2,182.46V76.8c0-4.71-3.814-8.533-8.533-8.533
				s-8.533,3.823-8.533,8.533v110.933c0,3.234,1.826,6.187,4.719,7.637l1.801,0.896l-1.801,0.905
				c-2.893,1.442-4.719,4.395-4.719,7.629v298.667c0,4.71,3.814,8.533,8.533,8.533H128c3.234,0,6.187-1.826,7.637-4.719
				l9.429-18.867l9.438,18.867c1.442,2.893,4.395,4.719,7.629,4.719h307.2c4.719,0,8.533-3.823,8.533-8.533v-102.4
				c0-3.234-1.826-6.187-4.719-7.629l-1.8-0.905l1.8-0.896c2.893-1.451,4.719-4.403,4.719-7.637V153.6
				c0-3.234-1.826-6.187-4.719-7.629l-18.867-9.438l18.867-9.429C476.041,125.653,477.867,122.701,477.867,119.467z"/>
			<path d="M238.933,256c4.719,0,8.533-3.823,8.533-8.533s-3.814-8.533-8.533-8.533H230.4c-4.719,0-8.533,3.823-8.533,8.533
				S225.681,256,230.4,256H238.933z"/>
			<path d="M360.738,154.112c-4.378-1.28-9.071,1.306-10.53,5.649c-0.051,0.145-3.149,8.183-18.842,15.599
				c-9.796-67.362-33.809-72.96-41.233-72.96c-15.488,0-20.966,2.91-26.061,6.417c-2.099,1.451-3.055,2.116-8.073,2.116
				c-5.018,0-5.973-0.666-8.073-2.116c-5.094-3.507-10.573-6.417-26.061-6.417c-26.59,0-37.35,47.369-41.233,72.96
				c-15.249-7.211-18.62-15.01-18.825-15.573c-1.254-4.403-5.803-7.083-10.274-5.931c-4.574,1.143-7.356,5.777-6.212,10.351
				C146.355,168.363,158.293,204.8,256,204.8s109.645-36.437,110.677-40.593C367.795,159.761,365.141,155.392,360.738,154.112z
				 M256,187.733c-26.223,0-45.201-2.714-58.965-6.451c4.318-30.421,14.95-61.815,24.832-61.815c11.435,0,13.833,1.655,16.367,3.396
				c4.07,2.816,8.218,5.137,17.766,5.137c9.549,0,13.705-2.321,17.766-5.137c2.534-1.741,4.932-3.396,16.367-3.396
				c9.89,0,20.523,31.403,24.841,61.841C301.21,185.028,282.189,187.733,256,187.733z"/>
			<path d="M281.6,256c4.719,0,8.533-3.823,8.533-8.533s-3.814-8.533-8.533-8.533h-8.533c-4.719,0-8.533,3.823-8.533,8.533
				s3.814,8.533,8.533,8.533H281.6z"/>
		</g>
	</g>
</g>
</svg>